# xmcd
#
# Track frame offsets:
#	150
#	14731
#	28849
#	42902
#	53920
#	62155
#	78974
#	92052
#	107956
#	121764
#	134882
#	145984
#
# Disc length: 2146 seconds
#
# Revision: 1
# Processed by: cddbd v1.5.2PL0 Copyright (c) Steve Scherf et al.
# Submitted via: audiograbber 1.83.01
#
DISCID=af08600c
DTITLE=Lasse Stefanz - Spelmansminnen
DYEAR=1975
DGENRE=DansBand
TTITLE0=Spelmansminnen
TTITLE1=Sleepy Joe
TTITLE2=Lorna
TTITLE3=Kom tillbaka min vän
TTITLE4=Varför vill du inte Ann-Marie
TTITLE5=När en vind drar förbi
TTITLE6=Rendez-Vouz
TTITLE7=Dandy man
TTITLE8=Charlie truck
TTITLE9=Början till slutet
TTITLE10=Skräckens maskerad
TTITLE11=En liten ton
EXTD=Nr:2
EXTT0=
EXTT1=
EXTT2=
EXTT3=
EXTT4=
EXTT5=
EXTT6=
EXTT7=
EXTT8=
EXTT9=
EXTT10=
EXTT11=
PLAYORDER=
